<svg xmlns="http://www.w3.org/2000/svg" width="292px" height="61px" viewBox="0 0 292 61">
  <polygon points="140.45 1.316 150.832 1.316 150.832 45.282 140.45 1.316 140.45 1.316" fill="#5f5e5e"/>
  <polygon points="15.322 1.344 15.322 59.89 0 59.89 0 1.344 15.322 1.344 15.322 1.344" fill="#e52713"/>
  <polygon points="36.66 1.344 46.542 37.427 46.708 37.427 46.708 1.344 61.039 1.344 61.039 59.89 44.237 59.89 34.022 23.732 33.857 23.732 33.857 59.89 19.526 59.89 19.526 1.344 36.66 1.344 36.66 1.344" fill="#e52713"/>
  <path d="M88.723,16.846c0-1.752-.36-3.246-1.079-4.471-.71-1.231-1.816-1.849-3.29-1.849-1.651,0-2.859.536-3.624,1.6-.775,1.065-1.152,2.254-1.152,3.567,0,1.918.613,3.434,1.853,4.555,1.231,1.119,2.784,2.088,4.646,2.908,1.871.82,3.881,1.655,6.02,2.504,2.139.848,4.148,1.954,6.011,3.323,1.872,1.365,3.42,3.153,4.656,5.371,1.235,2.207,1.853,5.093,1.853,8.646,0,6.239-1.78,10.759-5.357,13.572-3.568,2.82-8.73,4.231-15.487,4.231-3.181,0-6.002-.268-8.44-.783-2.443-.516-4.508-1.421-6.177-2.712-1.679-1.28-2.955-2.959-3.831-5.043-.88-2.073-1.318-4.646-1.318-7.706v-2.051h14.824v1.397c0,2.517.47,4.277,1.401,5.287.935,1.019,2.143,1.525,3.627,1.525,1.59,0,2.806-.554,3.664-1.645.849-1.088,1.281-2.425,1.281-4.02,0-1.912-.6-3.429-1.78-4.549-1.18-1.121-2.66-2.074-4.443-2.872-1.788-.788-3.723-1.595-5.807-2.42-2.088-.815-4.029-1.88-5.813-3.193-1.779-1.315-3.263-3.034-4.443-5.172-1.184-2.129-1.77-4.918-1.77-8.362,0-5.956,1.59-10.496,4.775-13.612,3.185-3.116,8.017-4.674,14.497-4.674,6.701,0,11.541,1.433,14.539,4.301,2.995,2.876,4.49,7.454,4.49,13.74h-14.327v-1.391h0v-.002Z" fill="#e52713"/>
  <path d="M126.78,13.315l-4.204,24.846h8.565l-4.204-24.846s-.157,0-.157,0ZM136.497,1.344l14.335,58.546h-16.308l-1.567-10.242h-12.198l-1.567,10.242h-16.059L117.219,1.344h19.278Z" fill="#e52713"/>
  <line x1="163.788" y1="1.29" x2="163.788" y2="59.861" fill="none" stroke="#5f5e5e" stroke-miterlimit="10" stroke-width=".614"/>
  <polygon points="177.118 1.424 177.972 1.424 177.972 10.944 177.118 10.944 177.118 1.424 177.118 1.424" fill="#5f5e5e"/>
  <polygon points="179.785 1.424 180.931 1.424 184.571 9.718 184.598 9.718 184.598 1.424 185.452 1.424 185.452 10.944 184.305 10.944 180.665 2.651 180.638 2.651 180.638 10.944 179.785 10.944 179.785 1.424 179.785 1.424" fill="#5f5e5e"/>
  <path d="M191.384,3.864c0-1.173-.546-1.88-1.706-1.88s-1.8.76-1.8,1.707c0,2.84,4.613,1.28,4.613,4.627,0,1.84-1.147,2.787-2.88,2.787-1.787,0-2.773-.96-2.773-2.827v-.28h.854v.36c0,1.213.64,2.027,1.893,2.027,1.2,0,2.053-.6,2.053-1.933,0-2.827-4.613-1.213-4.613-4.667,0-1.493.973-2.52,2.626-2.52,1.773,0,2.586.907,2.586,2.6h-.854,0Z" fill="#5f5e5e"/>
  <polygon points="195.664 2.144 193.21 2.144 193.21 1.424 198.97 1.424 198.97 2.144 196.517 2.144 196.517 10.944 195.664 10.944 195.664 2.144 195.664 2.144" fill="#5f5e5e"/>
  <polygon points="200.116 1.424 200.969 1.424 200.969 10.944 200.116 10.944 200.116 1.424 200.116 1.424" fill="#5f5e5e"/>
  <polygon points="204.57 2.144 202.116 2.144 202.116 1.424 207.876 1.424 207.876 2.144 205.422 2.144 205.422 10.944 204.57 10.944 204.57 2.144 204.57 2.144" fill="#5f5e5e"/>
  <path d="M208.835,1.424h.853v6.84c0,1.427.614,2.12,1.867,2.12s1.866-.693,1.866-2.12V1.424h.854v6.853c0,2-.973,2.827-2.72,2.827s-2.72-.827-2.72-2.827V1.424h0Z" fill="#5f5e5e"/>
  <polygon points="217.688 2.144 215.235 2.144 215.235 1.424 220.995 1.424 220.995 2.144 218.541 2.144 218.541 10.944 217.688 10.944 217.688 2.144 217.688 2.144" fill="#5f5e5e"/>
  <polygon points="225.553 1.424 226.7 1.424 230.34 9.718 230.367 9.718 230.367 1.424 231.22 1.424 231.22 10.944 230.073 10.944 226.433 2.651 226.407 2.651 226.407 10.944 225.553 10.944 225.553 1.424 225.553 1.424" fill="#5f5e5e"/>
  <path d="M237.045,7.451l-1.467-5.36h-.026l-1.467,5.36h2.96,0ZM235.033,1.424h1.066l2.813,9.52h-.906l-.774-2.773h-3.333l-.773,2.773h-.906l2.813-9.52h0Z" fill="#5f5e5e"/>
  <polygon points="240.966 2.144 238.512 2.144 238.512 1.424 244.272 1.424 244.272 2.144 241.819 2.144 241.819 10.944 240.966 10.944 240.966 2.144 240.966 2.144" fill="#5f5e5e"/>
  <polygon points="245.418 1.424 246.271 1.424 246.271 10.944 245.418 10.944 245.418 1.424 245.418 1.424" fill="#5f5e5e"/>
  <path d="M251.044,10.384c1.36,0,2.187-1.12,2.187-4.2s-.827-4.2-2.187-4.2-2.187,1.12-2.187,4.2.827,4.2,2.187,4.2h0ZM251.044,1.264c1.947,0,3.04,1.507,3.04,4.92s-1.093,4.92-3.04,4.92-3.04-1.507-3.04-4.92,1.093-4.92,3.04-4.92h0Z" fill="#5f5e5e"/>
  <polygon points="255.764 1.424 256.91 1.424 260.55 9.718 260.577 9.718 260.577 1.424 261.431 1.424 261.431 10.944 260.283 10.944 256.644 2.651 256.617 2.651 256.617 10.944 255.764 10.944 255.764 1.424 255.764 1.424" fill="#5f5e5e"/>
  <path d="M267.256,7.451l-1.467-5.36h-.026l-1.467,5.36h2.96ZM265.243,1.424h1.066l2.813,9.52h-.906l-.774-2.773h-3.334l-.773,2.773h-.906l2.813-9.52h.001Z" fill="#5f5e5e"/>
  <polygon points="270.122 1.424 270.976 1.424 270.976 10.224 274.922 10.224 274.922 10.944 270.122 10.944 270.122 1.424 270.122 1.424" fill="#5f5e5e"/>
  <path d="M177.918,26.519h1.387c1.866,0,2.653-.933,2.653-4.027,0-3.12-.786-4.053-2.653-4.053h-1.387v8.08h0ZM177.065,17.719h2.294c2.774,0,3.453,1.653,3.453,4.76s-.679,4.76-3.453,4.76h-2.294v-9.52h0Z" fill="#5f5e5e"/>
  <polygon points="184.491 17.719 189.211 17.719 189.211 18.439 185.344 18.439 185.344 21.906 188.957 21.906 188.957 22.626 185.344 22.626 185.344 26.519 189.331 26.519 189.331 27.239 184.491 27.239 184.491 17.719 184.491 17.719" fill="#5f5e5e"/>
  <path d="M194.85,20.159c0-1.173-.547-1.88-1.706-1.88s-1.8.76-1.8,1.707c0,2.84,4.613,1.28,4.613,4.627,0,1.84-1.147,2.787-2.88,2.787-1.786,0-2.773-.96-2.773-2.827v-.28h.853v.36c0,1.213.64,2.027,1.893,2.027,1.2,0,2.053-.6,2.053-1.933,0-2.827-4.613-1.213-4.613-4.667,0-1.493.973-2.52,2.627-2.52,1.773,0,2.586.907,2.586,2.6h-.854.001Z" fill="#5f5e5e"/>
  <path d="M204.983,20.159c0-1.173-.547-1.88-1.707-1.88s-1.799.76-1.799,1.707c0,2.84,4.613,1.28,4.613,4.627,0,1.84-1.147,2.787-2.88,2.787-1.786,0-2.773-.96-2.773-2.827v-.28h.854v.36c0,1.213.639,2.027,1.893,2.027,1.2,0,2.053-.6,2.053-1.933,0-2.827-4.613-1.213-4.613-4.667,0-1.493.973-2.52,2.626-2.52,1.773,0,2.586.907,2.586,2.6h-.853Z" fill="#5f5e5e"/>
  <path d="M213.262,24.012c-.121,2.173-1.121,3.387-2.827,3.387-1.946,0-3.04-1.507-3.04-4.92s1.093-4.92,3.04-4.92c1.933,0,2.733,1.373,2.733,2.933h-.854c0-1.293-.653-2.213-1.88-2.213-1.36,0-2.187,1.12-2.187,4.2s.827,4.2,2.187,4.2c1.2,0,1.88-1.027,1.974-2.667,0,0,.854,0,.854,0Z" fill="#5f5e5e"/>
  <polygon points="214.714 17.719 215.567 17.719 215.567 27.239 214.714 27.239 214.714 17.719 214.714 17.719" fill="#5f5e5e"/>
  <polygon points="217.38 17.719 222.1 17.719 222.1 18.439 218.233 18.439 218.233 21.906 221.846 21.906 221.846 22.626 218.233 22.626 218.233 26.519 222.22 26.519 222.22 27.239 217.38 27.239 217.38 17.719 217.38 17.719" fill="#5f5e5e"/>
  <polygon points="223.566 17.719 224.713 17.719 228.353 26.012 228.379 26.012 228.379 17.719 229.233 17.719 229.233 27.239 228.086 27.239 224.446 18.946 224.419 18.946 224.419 27.239 223.566 27.239 223.566 17.719 223.566 17.719" fill="#5f5e5e"/>
  <path d="M236.779,24.012c-.121,2.173-1.121,3.387-2.827,3.387-1.946,0-3.04-1.507-3.04-4.92s1.093-4.92,3.04-4.92c1.934,0,2.733,1.373,2.733,2.933h-.853c0-1.293-.654-2.213-1.88-2.213-1.36,0-2.187,1.12-2.187,4.2s.827,4.2,2.187,4.2c1.2,0,1.88-1.027,1.974-2.667h.854-.001Z" fill="#5f5e5e"/>
  <polygon points="238.177 17.719 242.898 17.719 242.898 18.439 239.031 18.439 239.031 21.906 242.644 21.906 242.644 22.626 239.031 22.626 239.031 26.519 243.018 26.519 243.018 27.239 238.177 27.239 238.177 17.719 238.177 17.719" fill="#5f5e5e"/>
  <path d="M248.537,20.159c0-1.173-.547-1.88-1.707-1.88s-1.799.76-1.799,1.707c0,2.84,4.613,1.28,4.613,4.627,0,1.84-1.147,2.787-2.88,2.787-1.786,0-2.773-.96-2.773-2.827v-.28h.854v.36c0,1.213.64,2.027,1.893,2.027,1.2,0,2.053-.6,2.053-1.933,0-2.827-4.613-1.213-4.613-4.667,0-1.493.973-2.52,2.626-2.52,1.773,0,2.586.907,2.586,2.6h-.853Z" fill="#5f5e5e"/>
  <path d="M181.132,40.04l-1.467-5.36h-.026l-1.467,5.36h2.96,0ZM179.119,34.013h1.066l2.814,9.521h-.907l-.774-2.773h-3.333l-.772,2.773h-.907l2.813-9.521h0Z" fill="#5f5e5e"/>
  <path d="M184.851,38.681h1.454c1.133,0,2.026-.507,2.026-1.973,0-1.427-.72-1.973-2.026-1.973h-1.454v3.947h0ZM183.998,34.013h2.573c1.84,0,2.613,1.08,2.613,2.694,0,1.466-.733,2.693-2.906,2.693h-1.427v4.134h-.853v-9.521h0Z" fill="#5f5e5e"/>
  <path d="M191.517,38.681h1.454c1.133,0,2.026-.507,2.026-1.973,0-1.427-.72-1.973-2.026-1.973h-1.454v3.947h0ZM190.664,34.013h2.573c1.84,0,2.613,1.08,2.613,2.694,0,1.466-.733,2.693-2.906,2.693h-1.427v4.134h-.853v-9.521h0Z" fill="#5f5e5e"/>
  <polygon points="197.329 34.013 198.183 34.013 198.183 42.813 202.13 42.813 202.13 43.534 197.329 43.534 197.329 34.013 197.329 34.013" fill="#5f5e5e"/>
  <polygon points="203.329 34.013 204.183 34.013 204.183 43.534 203.329 43.534 203.329 34.013 203.329 34.013" fill="#5f5e5e"/>
  <path d="M209.076,41.506l.467-.506,1.027,1c.373-.68.573-1.733.573-3.227,0-3.08-.826-4.2-2.187-4.2s-2.187,1.12-2.187,4.2.827,4.2,2.187,4.2c.467,0,.853-.12,1.2-.427l-1.08-1.04h0ZM210.676,43.107c-.466.4-1.04.587-1.72.587-1.946,0-3.04-1.507-3.04-4.92s1.094-4.92,3.04-4.92,3.04,1.507,3.04,4.92c0,1.787-.307,3.054-.866,3.827l.973.933-.467.506-.96-.933h0Z" fill="#5f5e5e"/>
  <path d="M213.542,34.013h.853v6.84c0,1.427.614,2.12,1.867,2.12s1.867-.694,1.867-2.12v-6.84h.853v6.854c0,2-.973,2.827-2.72,2.827s-2.72-.826-2.72-2.827v-6.854h0Z" fill="#5f5e5e"/>
  <path d="M224.435,31.68l-1.307,1.88h-.64l1-1.88s.947,0,.947,0ZM220.608,34.013h4.72v.721h-3.867v3.466h3.613v.72h-3.613v3.893h3.987v.721h-4.84v-9.521h0Z" fill="#5f5e5e"/>
  <polygon points="226.793 34.013 231.514 34.013 231.514 34.734 227.647 34.734 227.647 38.2 231.26 38.2 231.26 38.92 227.647 38.92 227.647 42.813 231.633 42.813 231.633 43.534 226.793 43.534 226.793 34.013 226.793 34.013" fill="#5f5e5e"/>
  <path d="M237.153,36.454c0-1.173-.547-1.88-1.706-1.88s-1.8.76-1.8,1.707c0,2.84,4.613,1.28,4.613,4.627,0,1.84-1.147,2.786-2.88,2.786-1.786,0-2.773-.96-2.773-2.827v-.28h.853v.36c0,1.213.64,2.027,1.893,2.027,1.2,0,2.053-.6,2.053-1.933,0-2.827-4.613-1.214-4.613-4.667,0-1.493.973-2.52,2.627-2.52,1.773,0,2.586.907,2.586,2.6h-.854.001Z" fill="#5f5e5e"/>
  <path d="M181.052,53.522c0-1.387-.28-1.987-1.147-1.987-.973,0-1.2.973-1.2,3.666,0,2.88.4,3.4,1.227,3.4.694,0,1.2-.359,1.2-2.413h1.92c0,2.054-.507,3.826-3.027,3.826-2.88,0-3.24-2.054-3.24-4.947s.36-4.946,3.24-4.946c2.747,0,2.947,2.013,2.947,3.4h-1.92Z" fill="#5f5e5e"/>
  <polygon points="189.464 50.308 189.464 51.881 186.064 51.881 186.064 54.121 189.264 54.121 189.264 55.695 186.064 55.695 186.064 58.255 189.597 58.255 189.597 59.829 184.144 59.829 184.144 50.308 189.464 50.308 189.464 50.308" fill="#5f5e5e"/>
  <polygon points="192.77 50.308 195.091 56.828 195.118 56.828 195.118 50.308 196.877 50.308 196.877 59.829 194.69 59.829 192.344 53.162 192.317 53.162 192.317 59.829 190.557 59.829 190.557 50.308 192.77 50.308 192.77 50.308" fill="#5f5e5e"/>
  <polygon points="203.782 50.308 203.782 51.881 201.703 51.881 201.703 59.829 199.783 59.829 199.783 51.881 197.703 51.881 197.703 50.308 203.782 50.308 203.782 50.308" fill="#5f5e5e"/>
  <path d="M206.528,54.468h.801c.92,0,1.44-.4,1.44-1.427,0-.88-.467-1.32-1.334-1.32h-.907v2.747h0ZM204.608,50.308h3.547c1.573,0,2.534.827,2.534,2.454,0,1.266-.507,2.12-1.587,2.347v.026c1.307.173,1.507.894,1.533,2.906.014,1,.066,1.521.426,1.707v.08h-2.079c-.187-.267-.228-.627-.24-1l-.054-1.827c-.026-.747-.36-1.2-1.133-1.2h-1.027v4.027h-1.92v-9.52h0Z" fill="#5f5e5e"/>
  <polygon points="217.341 50.308 217.341 51.881 213.941 51.881 213.941 54.121 217.141 54.121 217.141 55.695 213.941 55.695 213.941 58.255 217.474 58.255 217.474 59.829 212.021 59.829 212.021 50.308 217.341 50.308 217.341 50.308" fill="#5f5e5e"/>
  <polygon points="223.06 50.308 224.407 57.349 224.447 57.349 225.861 50.308 227.847 50.308 225.66 59.829 223.194 59.829 221.007 50.308 223.06 50.308 223.06 50.308" fill="#5f5e5e"/>
  <path d="M230.166,56.241h1.867l-.92-4.279h-.027l-.92,4.279h0ZM229.913,50.308h2.374l2.52,9.52h-2l-.44-2.014h-2.533l-.44,2.014h-2l2.52-9.52h0Z" fill="#5f5e5e"/>
  <polygon points="235.472 59.829 235.472 50.308 237.392 50.308 237.392 58.255 240.792 58.255 240.792 59.829 235.472 59.829 235.472 59.829" fill="#5f5e5e"/>
  <path d="M246.858,58.415h.854c1.333,0,1.6-.841,1.6-3.426,0-2.161-.173-3.267-1.64-3.267h-.814v6.693h0ZM244.938,50.308h3.147c2.666,0,3.147,1.827,3.147,4.626,0,3.374-.72,4.894-3.266,4.894h-3.027v-9.52h-.001Z" fill="#5f5e5e"/>
  <polygon points="257.817 50.308 257.817 51.881 254.416 51.881 254.416 54.121 257.616 54.121 257.616 55.695 254.416 55.695 254.416 58.255 257.95 58.255 257.95 59.829 252.497 59.829 252.497 50.308 257.817 50.308 257.817 50.308" fill="#5f5e5e"/>
  <polygon points="262.109 59.829 262.109 50.308 264.029 50.308 264.029 58.255 267.429 58.255 267.429 59.829 262.109 59.829 262.109 59.829" fill="#5f5e5e"/>
  <path d="M271.321,58.601c1.134,0,1.321-.973,1.321-3.533,0-2.546-.187-3.533-1.321-3.533s-1.32.987-1.32,3.533c0,2.561.187,3.533,1.32,3.533h0ZM271.321,50.122c2.88,0,3.241,2.053,3.241,4.946s-.36,4.947-3.241,4.947-3.239-2.054-3.239-4.947.36-4.946,3.239-4.946h0Z" fill="#5f5e5e"/>
  <polygon points="275.788 59.829 275.788 50.308 277.708 50.308 277.708 59.829 275.788 59.829 275.788 59.829" fill="#5f5e5e"/>
  <path d="M281.054,54.468h.8c.92,0,1.44-.4,1.44-1.427,0-.88-.467-1.32-1.334-1.32h-.906v2.747h0ZM279.134,50.308h3.546c1.574,0,2.533.827,2.533,2.454,0,1.266-.507,2.12-1.586,2.347v.026c1.307.173,1.507.894,1.533,2.906.014,1,.067,1.521.427,1.707v.08h-2.08c-.187-.267-.227-.627-.24-1l-.053-1.827c-.026-.747-.36-1.2-1.133-1.2h-1.027v4.027h-1.92v-9.52h0Z" fill="#5f5e5e"/>
  <polygon points="291.867 50.308 291.867 51.881 288.466 51.881 288.466 54.121 291.666 54.121 291.666 55.695 288.466 55.695 288.466 58.255 292 58.255 292 59.829 286.547 59.829 286.547 50.308 291.867 50.308 291.867 50.308" fill="#5f5e5e"/>
</svg>
